<mxfile host="Electron" modified="2024-04-08T18:02:04.803Z" agent="Mozilla/5.0 (Windows NT 10.0; Win64; x64) AppleWebKit/537.36 (KHTML, like Gecko) draw.io/24.1.0 Chrome/120.0.6099.109 Electron/28.1.0 Safari/537.36" etag="b2sG7fa-JAKcgmRZFENW" version="24.1.0" type="device">
  <diagram name="Сторінка-1" id="LB391OAQ-V_ZAVYuzolM">
    <mxGraphModel dx="1290" dy="629" grid="1" gridSize="10" guides="1" tooltips="1" connect="1" arrows="1" fold="1" page="1" pageScale="1" pageWidth="827" pageHeight="1169" math="0" shadow="0">
      <root>
        <mxCell id="0" />
        <mxCell id="1" parent="0" />
        <mxCell id="mLPpI96hi4le9fn3UjU--1" value="Випускник" style="html=1;whiteSpace=wrap;" parent="1" vertex="1">
          <mxGeometry x="80" y="40" width="120" height="50" as="geometry" />
        </mxCell>
        <mxCell id="mLPpI96hi4le9fn3UjU--2" value="Платформа ЗНО" style="html=1;whiteSpace=wrap;" parent="1" vertex="1">
          <mxGeometry x="80" y="190" width="120" height="50" as="geometry" />
        </mxCell>
        <mxCell id="mLPpI96hi4le9fn3UjU--4" value="Система спілкування" style="html=1;whiteSpace=wrap;" parent="1" vertex="1">
          <mxGeometry x="80" y="320" width="120" height="50" as="geometry" />
        </mxCell>
        <mxCell id="mLPpI96hi4le9fn3UjU--5" value="Вчителі" style="html=1;whiteSpace=wrap;" parent="1" vertex="1">
          <mxGeometry x="80" y="440" width="120" height="50" as="geometry" />
        </mxCell>
        <mxCell id="mLPpI96hi4le9fn3UjU--6" value="" style="endArrow=none;dashed=1;html=1;rounded=0;exitX=1;exitY=0.5;exitDx=0;exitDy=0;" parent="1" edge="1">
          <mxGeometry width="50" height="50" relative="1" as="geometry">
            <mxPoint x="200" y="344.5" as="sourcePoint" />
            <mxPoint x="720" y="345" as="targetPoint" />
          </mxGeometry>
        </mxCell>
        <mxCell id="mLPpI96hi4le9fn3UjU--7" value="" style="endArrow=none;dashed=1;html=1;rounded=0;exitX=1;exitY=0.5;exitDx=0;exitDy=0;" parent="1" edge="1">
          <mxGeometry width="50" height="50" relative="1" as="geometry">
            <mxPoint x="200" y="64.5" as="sourcePoint" />
            <mxPoint x="720" y="65" as="targetPoint" />
          </mxGeometry>
        </mxCell>
        <mxCell id="mLPpI96hi4le9fn3UjU--8" value="" style="endArrow=none;dashed=1;html=1;rounded=0;exitX=1;exitY=0.5;exitDx=0;exitDy=0;" parent="1" edge="1">
          <mxGeometry width="50" height="50" relative="1" as="geometry">
            <mxPoint x="200" y="460" as="sourcePoint" />
            <mxPoint x="710" y="460" as="targetPoint" />
          </mxGeometry>
        </mxCell>
        <mxCell id="mLPpI96hi4le9fn3UjU--9" value="" style="endArrow=none;dashed=1;html=1;rounded=0;exitX=1;exitY=0.5;exitDx=0;exitDy=0;" parent="1" edge="1">
          <mxGeometry width="50" height="50" relative="1" as="geometry">
            <mxPoint x="200" y="210" as="sourcePoint" />
            <mxPoint x="720" y="210" as="targetPoint" />
          </mxGeometry>
        </mxCell>
        <mxCell id="mLPpI96hi4le9fn3UjU--10" value="" style="html=1;verticalAlign=bottom;endArrow=block;curved=0;rounded=0;fontStyle=1" parent="1" edge="1">
          <mxGeometry width="80" relative="1" as="geometry">
            <mxPoint x="280" y="70" as="sourcePoint" />
            <mxPoint x="280" y="210" as="targetPoint" />
            <mxPoint as="offset" />
          </mxGeometry>
        </mxCell>
        <mxCell id="mLPpI96hi4le9fn3UjU--11" value="&lt;span style=&quot;color: rgb(31, 31, 31); font-family: &amp;quot;Google Sans&amp;quot;, &amp;quot;Helvetica Neue&amp;quot;, sans-serif; font-style: normal; font-variant-ligatures: normal; font-variant-caps: normal; font-weight: 400; letter-spacing: normal; orphans: 2; text-align: left; text-indent: 0px; text-transform: none; widows: 2; word-spacing: 0px; -webkit-text-stroke-width: 0px; background-color: rgb(255, 255, 255); text-decoration-thickness: initial; text-decoration-style: initial; text-decoration-color: initial; float: none; display: inline !important;&quot;&gt;&lt;font style=&quot;font-size: 12px;&quot;&gt;1.&amp;nbsp;Запит на спілкування&lt;/font&gt;&lt;/span&gt;" style="text;whiteSpace=wrap;html=1;rotation=0;" parent="1" vertex="1">
          <mxGeometry x="200" y="115" width="85" height="35" as="geometry" />
        </mxCell>
        <mxCell id="mLPpI96hi4le9fn3UjU--12" value="" style="html=1;verticalAlign=bottom;endArrow=block;curved=0;rounded=0;" parent="1" edge="1">
          <mxGeometry width="80" relative="1" as="geometry">
            <mxPoint x="310" y="210" as="sourcePoint" />
            <mxPoint x="310" y="350" as="targetPoint" />
            <mxPoint as="offset" />
          </mxGeometry>
        </mxCell>
        <mxCell id="mLPpI96hi4le9fn3UjU--13" value="&lt;span style=&quot;color: rgb(31, 31, 31); font-family: &amp;quot;Google Sans&amp;quot;, &amp;quot;Helvetica Neue&amp;quot;, sans-serif; font-style: normal; font-variant-ligatures: normal; font-variant-caps: normal; font-weight: 400; letter-spacing: normal; orphans: 2; text-align: left; text-indent: 0px; text-transform: none; widows: 2; word-spacing: 0px; -webkit-text-stroke-width: 0px; background-color: rgb(255, 255, 255); text-decoration-thickness: initial; text-decoration-style: initial; text-decoration-color: initial; float: none; display: inline !important;&quot;&gt;&lt;font style=&quot;font-size: 12px;&quot;&gt;2. Пошук співрозмовника&lt;/font&gt;&lt;/span&gt;" style="text;whiteSpace=wrap;html=1;rotation=0;" parent="1" vertex="1">
          <mxGeometry x="220" y="270" width="90" height="40" as="geometry" />
        </mxCell>
        <mxCell id="mLPpI96hi4le9fn3UjU--15" value="&lt;span style=&quot;color: rgb(31, 31, 31); font-family: &amp;quot;Google Sans&amp;quot;, &amp;quot;Helvetica Neue&amp;quot;, sans-serif; font-style: normal; font-variant-ligatures: normal; font-variant-caps: normal; font-weight: 400; letter-spacing: normal; orphans: 2; text-align: left; text-indent: 0px; text-transform: none; widows: 2; word-spacing: 0px; -webkit-text-stroke-width: 0px; background-color: rgb(255, 255, 255); text-decoration-thickness: initial; text-decoration-style: initial; text-decoration-color: initial; float: none; display: inline !important;&quot;&gt;&lt;font style=&quot;font-size: 12px;&quot;&gt;3. Надання списку співрозмовників&lt;/font&gt;&lt;/span&gt;" style="text;whiteSpace=wrap;html=1;rotation=0;" parent="1" vertex="1">
          <mxGeometry x="360" y="220" width="120" height="40" as="geometry" />
        </mxCell>
        <mxCell id="mLPpI96hi4le9fn3UjU--17" value="&lt;span style=&quot;color: rgb(31, 31, 31); font-family: &amp;quot;Google Sans&amp;quot;, &amp;quot;Helvetica Neue&amp;quot;, sans-serif; font-style: normal; font-variant-ligatures: normal; font-variant-caps: normal; font-weight: 400; letter-spacing: normal; orphans: 2; text-align: left; text-indent: 0px; text-transform: none; widows: 2; word-spacing: 0px; -webkit-text-stroke-width: 0px; background-color: rgb(255, 255, 255); text-decoration-thickness: initial; text-decoration-style: initial; text-decoration-color: initial; float: none; display: inline !important;&quot;&gt;&lt;font style=&quot;font-size: 12px;&quot;&gt;4.Вибір співрозмовника&lt;/font&gt;&lt;/span&gt;" style="text;whiteSpace=wrap;html=1;rotation=0;" parent="1" vertex="1">
          <mxGeometry x="340" y="115" width="95" height="40" as="geometry" />
        </mxCell>
        <mxCell id="mLPpI96hi4le9fn3UjU--18" value="" style="html=1;verticalAlign=bottom;endArrow=block;curved=0;rounded=0;fontStyle=1" parent="1" edge="1">
          <mxGeometry width="80" relative="1" as="geometry">
            <mxPoint x="430" y="65" as="sourcePoint" />
            <mxPoint x="430" y="205" as="targetPoint" />
            <mxPoint as="offset" />
          </mxGeometry>
        </mxCell>
        <mxCell id="mLPpI96hi4le9fn3UjU--19" value="" style="html=1;verticalAlign=bottom;endArrow=block;curved=0;rounded=0;" parent="1" edge="1">
          <mxGeometry width="80" relative="1" as="geometry">
            <mxPoint x="490" y="210" as="sourcePoint" />
            <mxPoint x="490" y="350" as="targetPoint" />
            <mxPoint as="offset" />
          </mxGeometry>
        </mxCell>
        <mxCell id="mLPpI96hi4le9fn3UjU--20" value="&lt;span style=&quot;color: rgb(31, 31, 31); font-family: &amp;quot;Google Sans&amp;quot;, &amp;quot;Helvetica Neue&amp;quot;, sans-serif; font-style: normal; font-variant-ligatures: normal; font-variant-caps: normal; font-weight: 400; letter-spacing: normal; orphans: 2; text-align: left; text-indent: 0px; text-transform: none; widows: 2; word-spacing: 0px; -webkit-text-stroke-width: 0px; background-color: rgb(255, 255, 255); text-decoration-thickness: initial; text-decoration-style: initial; text-decoration-color: initial; float: none; display: inline !important;&quot;&gt;&lt;font style=&quot;font-size: 12px;&quot;&gt;5. Початок спілкування&lt;/font&gt;&lt;/span&gt;" style="text;whiteSpace=wrap;html=1;rotation=0;" parent="1" vertex="1">
          <mxGeometry x="450" y="260" width="80" height="35" as="geometry" />
        </mxCell>
        <mxCell id="mLPpI96hi4le9fn3UjU--21" value="" style="html=1;verticalAlign=bottom;endArrow=block;curved=0;rounded=0;fontStyle=1" parent="1" edge="1">
          <mxGeometry width="80" relative="1" as="geometry">
            <mxPoint x="550" y="65" as="sourcePoint" />
            <mxPoint x="550" y="350" as="targetPoint" />
            <mxPoint as="offset" />
          </mxGeometry>
        </mxCell>
        <mxCell id="mLPpI96hi4le9fn3UjU--22" value="&lt;span style=&quot;color: rgb(31, 31, 31); font-family: &amp;quot;Google Sans&amp;quot;, &amp;quot;Helvetica Neue&amp;quot;, sans-serif; font-style: normal; font-variant-ligatures: normal; font-variant-caps: normal; font-weight: 400; letter-spacing: normal; orphans: 2; text-align: left; text-indent: 0px; text-transform: none; widows: 2; word-spacing: 0px; -webkit-text-stroke-width: 0px; background-color: rgb(255, 255, 255); text-decoration-thickness: initial; text-decoration-style: initial; text-decoration-color: initial; float: none; display: inline !important;&quot;&gt;&lt;font style=&quot;font-size: 12px;&quot;&gt;6. Надсилання повідомлення&lt;/font&gt;&lt;/span&gt;" style="text;whiteSpace=wrap;html=1;rotation=0;" parent="1" vertex="1">
          <mxGeometry x="470" y="115" width="100" height="40" as="geometry" />
        </mxCell>
        <mxCell id="mLPpI96hi4le9fn3UjU--23" value="" style="html=1;verticalAlign=bottom;endArrow=block;curved=0;rounded=0;" parent="1" edge="1">
          <mxGeometry width="80" relative="1" as="geometry">
            <mxPoint x="420" y="350" as="sourcePoint" />
            <mxPoint x="420" y="460" as="targetPoint" />
            <mxPoint as="offset" />
          </mxGeometry>
        </mxCell>
        <mxCell id="mLPpI96hi4le9fn3UjU--24" value="&lt;span style=&quot;color: rgb(31, 31, 31); font-family: &amp;quot;Google Sans&amp;quot;, &amp;quot;Helvetica Neue&amp;quot;, sans-serif; font-style: normal; font-variant-ligatures: normal; font-variant-caps: normal; font-weight: 400; letter-spacing: normal; orphans: 2; text-align: left; text-indent: 0px; text-transform: none; widows: 2; word-spacing: 0px; -webkit-text-stroke-width: 0px; background-color: rgb(255, 255, 255); text-decoration-thickness: initial; text-decoration-style: initial; text-decoration-color: initial; float: none; display: inline !important;&quot;&gt;&lt;font style=&quot;font-size: 12px;&quot;&gt;&amp;nbsp;7. Отримання повідомлення&lt;/font&gt;&lt;/span&gt;" style="text;whiteSpace=wrap;html=1;rotation=0;" parent="1" vertex="1">
          <mxGeometry x="324" y="380" width="90" height="40" as="geometry" />
        </mxCell>
        <mxCell id="mLPpI96hi4le9fn3UjU--25" value="&lt;span style=&quot;color: rgb(31, 31, 31); font-family: &amp;quot;Google Sans&amp;quot;, &amp;quot;Helvetica Neue&amp;quot;, sans-serif; font-style: normal; font-variant-ligatures: normal; font-variant-caps: normal; font-weight: 400; letter-spacing: normal; orphans: 2; text-align: left; text-indent: 0px; text-transform: none; widows: 2; word-spacing: 0px; -webkit-text-stroke-width: 0px; background-color: rgb(255, 255, 255); text-decoration-thickness: initial; text-decoration-style: initial; text-decoration-color: initial; float: none; display: inline !important;&quot;&gt;&lt;font style=&quot;font-size: 12px;&quot;&gt;8. Надсилання повідомлення&lt;/font&gt;&lt;/span&gt;" style="text;whiteSpace=wrap;html=1;rotation=0;" parent="1" vertex="1">
          <mxGeometry x="530" y="380" width="90" height="40" as="geometry" />
        </mxCell>
        <mxCell id="mLPpI96hi4le9fn3UjU--28" value="&lt;span style=&quot;color: rgb(31, 31, 31); font-family: &amp;quot;Google Sans&amp;quot;, &amp;quot;Helvetica Neue&amp;quot;, sans-serif; font-style: normal; font-variant-ligatures: normal; font-variant-caps: normal; font-weight: 400; letter-spacing: normal; orphans: 2; text-align: left; text-indent: 0px; text-transform: none; widows: 2; word-spacing: 0px; -webkit-text-stroke-width: 0px; background-color: rgb(255, 255, 255); text-decoration-thickness: initial; text-decoration-style: initial; text-decoration-color: initial; float: none; display: inline !important;&quot;&gt;&lt;font style=&quot;font-size: 12px;&quot;&gt;&amp;nbsp;9. Отримання повідомлення&lt;/font&gt;&lt;/span&gt;" style="text;whiteSpace=wrap;html=1;rotation=0;" parent="1" vertex="1">
          <mxGeometry x="600" y="240" width="100" height="40" as="geometry" />
        </mxCell>
        <mxCell id="mLPpI96hi4le9fn3UjU--29" value="" style="html=1;verticalAlign=bottom;endArrow=block;curved=0;rounded=0;fontStyle=1" parent="1" edge="1">
          <mxGeometry width="80" relative="1" as="geometry">
            <mxPoint x="690" y="70" as="sourcePoint" />
            <mxPoint x="690" y="210" as="targetPoint" />
            <mxPoint as="offset" />
          </mxGeometry>
        </mxCell>
        <mxCell id="mLPpI96hi4le9fn3UjU--30" value="&lt;span style=&quot;color: rgb(31, 31, 31); font-family: &amp;quot;Google Sans&amp;quot;, &amp;quot;Helvetica Neue&amp;quot;, sans-serif; font-style: normal; font-variant-ligatures: normal; font-variant-caps: normal; font-weight: 400; letter-spacing: normal; orphans: 2; text-align: left; text-indent: 0px; text-transform: none; widows: 2; word-spacing: 0px; -webkit-text-stroke-width: 0px; background-color: rgb(255, 255, 255); text-decoration-thickness: initial; text-decoration-style: initial; text-decoration-color: initial; float: none; display: inline !important;&quot;&gt;&lt;font style=&quot;font-size: 12px;&quot;&gt;10. Завершення спілкування&lt;/font&gt;&lt;/span&gt;" style="text;whiteSpace=wrap;html=1;rotation=0;" parent="1" vertex="1">
          <mxGeometry x="700" y="110" width="95" height="40" as="geometry" />
        </mxCell>
        <mxCell id="iam18a5_TgOkp9_tkTNE-3" value="" style="html=1;verticalAlign=bottom;endArrow=open;dashed=1;endSize=8;curved=0;rounded=0;" edge="1" parent="1">
          <mxGeometry relative="1" as="geometry">
            <mxPoint x="600" y="340" as="sourcePoint" />
            <mxPoint x="600" y="70" as="targetPoint" />
          </mxGeometry>
        </mxCell>
        <mxCell id="iam18a5_TgOkp9_tkTNE-5" value="" style="html=1;verticalAlign=bottom;endArrow=open;dashed=1;endSize=8;curved=0;rounded=0;" edge="1" parent="1">
          <mxGeometry relative="1" as="geometry">
            <mxPoint x="530" y="460" as="sourcePoint" />
            <mxPoint x="530" y="340" as="targetPoint" />
          </mxGeometry>
        </mxCell>
        <mxCell id="iam18a5_TgOkp9_tkTNE-6" value="" style="html=1;verticalAlign=bottom;endArrow=open;dashed=1;endSize=8;curved=0;rounded=0;" edge="1" parent="1">
          <mxGeometry relative="1" as="geometry">
            <mxPoint x="360" y="340" as="sourcePoint" />
            <mxPoint x="360" y="210" as="targetPoint" />
          </mxGeometry>
        </mxCell>
      </root>
    </mxGraphModel>
  </diagram>
</mxfile>
